<?xml version="1.0" encoding="UTF-8"?>
<svg xmlns="http://www.w3.org/2000/svg" version="1.1" viewBox="0 0 20 20">
  <defs>
    <style>
      .cls-1 {
        fill: #fff;
      }
    </style>
  </defs>
  <!-- Generator: Adobe Illustrator 28.7.1, SVG Export Plug-In . SVG Version: 1.2.0 Build 142)  -->
  <g>
    <g id="Layer_1">
      <path class="cls-1" d="M14.9,8.3l-3.4,4c-.7.8-2,.9-2.8.2,0,0-.2-.1-.2-.2l-3.4-4c-.2-.2-.2-.5,0-.7s.5-.2.7,0c0,0,0,0,0,0l3.4,4c.4.4,1,.5,1.5,0,0,0,0,0,0,0l3.4-4c.2-.2.5-.2.7,0s.2.5,0,.7c0,0,0,0,0,0h0Z"/>
    </g>
  </g>
</svg>